<svg xmlns="http://www.w3.org/2000/svg" viewBox="0 0 1600 900" preserveAspectRatio="xMidYMid slice">
  <defs>
    <linearGradient id="lagosSky" x1="0%" y1="0%" x2="100%" y2="100%">
      <stop offset="0%" stop-color="#0a3d91"/>
      <stop offset="100%" stop-color="#1e8bff"/>
    </linearGradient>
    <linearGradient id="lagosGlow" x1="0%" y1="0%" x2="0%" y2="100%">
      <stop offset="0%" stop-color="#f6f9ff" stop-opacity="0.9"/>
      <stop offset="100%" stop-color="#d6e4ff" stop-opacity="0.2"/>
    </linearGradient>
    <clipPath id="horizon">
      <rect x="0" y="0" width="1600" height="900" rx="40" ry="40"/>
    </clipPath>
  </defs>
  <g clip-path="url(#horizon)">
    <rect width="1600" height="900" fill="url(#lagosSky)"/>
    <rect y="420" width="1600" height="480" fill="#042246"/>
    <g fill="url(#lagosGlow)" opacity="0.75">
      <circle cx="280" cy="220" r="120"/>
      <circle cx="720" cy="180" r="160"/>
      <circle cx="1160" cy="220" r="110"/>
    </g>
    <g fill="#0e2e64" opacity="0.65">
      <rect x="-40" y="380" width="440" height="460"/>
      <rect x="340" y="410" width="240" height="430"/>
      <rect x="620" y="360" width="300" height="480"/>
      <rect x="980" y="390" width="260" height="450"/>
      <rect x="1250" y="350" width="360" height="500"/>
    </g>
    <g fill="#145ad1" opacity="0.9">
      <rect x="120" y="420" width="220" height="420"/>
      <rect x="430" y="440" width="180" height="400"/>
      <rect x="760" y="430" width="220" height="410"/>
      <rect x="1040" y="450" width="200" height="390"/>
      <rect x="1340" y="420" width="220" height="420"/>
    </g>
    <g fill="#ffffff" opacity="0.7">
      <rect x="160" y="470" width="60" height="18"/>
      <rect x="160" y="510" width="60" height="18"/>
      <rect x="160" y="550" width="60" height="18"/>
      <rect x="470" y="500" width="70" height="22"/>
      <rect x="790" y="510" width="80" height="20"/>
      <rect x="1090" y="530" width="70" height="20"/>
      <rect x="1390" y="510" width="80" height="20"/>
    </g>
    <g fill="#23d398" opacity="0.35">
      <path d="M0 700 Q400 640 800 700 T1600 700 L1600 900 L0 900 Z"/>
    </g>
  </g>
</svg>
