<svg xmlns="http://www.w3.org/2000/svg" viewBox="0 0 360 120" role="img" aria-labelledby="title">
  <title id="title">SiriusJobs Logo</title>
  <defs>
    <linearGradient id="sphereGradient" x1="0%" y1="0%" x2="100%" y2="100%">
      <stop offset="0%" stop-color="#59b5ff" />
      <stop offset="100%" stop-color="#0a64ff" />
    </linearGradient>
    <linearGradient id="textGradient" x1="0%" y1="0%" x2="100%" y2="0%">
      <stop offset="0%" stop-color="#44a7ff" />
      <stop offset="100%" stop-color="#1c78ff" />
    </linearGradient>
  </defs>
  <g transform="translate(12 14)">
    <circle cx="44" cy="46" r="40" fill="url(#sphereGradient)" opacity="0.25" />
    <circle cx="44" cy="46" r="34" fill="url(#sphereGradient)" />
    <g fill="none" stroke="#e0f0ff" stroke-width="4" stroke-linecap="round">
      <path d="M14 42c9-15 32-25 46-19s26 26 20 38c-6 12-27 17-37 15s-32-12-29-34" opacity="0.9" />
      <path d="M20 60c12 8 32 13 46 7s19-24 12-35S56 18 40 20 12 34 10 46" opacity="0.7" />
      <path d="M25 28c8-6 22-10 30-7s16 15 11 21-19 6-25 5-18-4-16-19" opacity="0.5" />
    </g>
    <circle cx="24" cy="32" r="4" fill="#fff" />
    <circle cx="54" cy="22" r="4" fill="#fff" />
    <circle cx="70" cy="42" r="4" fill="#fff" />
    <circle cx="40" cy="70" r="4" fill="#fff" />
  </g>
  <text x="120" y="70" font-family="'Inter', 'Segoe UI', sans-serif" font-size="44" font-weight="700" fill="url(#textGradient)">
    Sirius<tspan fill="#5cc0ff">Jobs</tspan>
  </text>
</svg>
